<svg xmlns="http://www.w3.org/2000/svg" fill="none" height="44" viewBox="0 0 212 44" width="212"><g fill="#181818"><path d="m.679993 1.00003h12.960007c3.08 0 5.74.54 7.98 1.62 2.28 1.08 4.04 2.6 5.28 4.56s1.86 4.25997 1.86 6.89997c0 3.04-.84 5.64-2.52 7.8-1.64 2.12-3.92 3.6-6.84 4.44l11.88 16.68h-8.58l-10.56-15.9h-4.38001v15.9h-7.079997zm12.660007 6.18h-5.58001v14.03997h5.58001c2.44 0 4.4-.6 5.88-1.8 1.48-1.24 2.22-2.98 2.22-5.22s-.74-3.96-2.22-5.15997c-1.48-1.24-3.44-1.86-5.88-1.86z"></path><path d="m42.305 1.00003h25.56v6.24h-18.6v10.19997h17.4v6.12h-17.4v13.2h18.6v6.24h-25.56z"></path><path d="m82.5823 1.00003h25.5597v6.24h-18.5997v10.19997h17.3997v6.12h-17.3997v13.2h18.5997v6.24h-25.5597z"></path><path d="m128.14 22c0 2.96.66 5.56 1.98 7.8s3.06 3.98 5.22 5.22c2.2 1.2 4.58 1.8 7.14 1.8 2.96 0 5.52-.56 7.68-1.68 2.2-1.16 4.02-2.6 5.46-4.32v8.46c-1.72 1.44-3.62 2.54-5.7 3.3-2.04.76-4.6 1.14-7.68 1.14s-5.94-.52-8.58-1.56c-2.64-1.08-4.96-2.58-6.96-4.5-1.96-1.92-3.5-4.2-4.62-6.84-1.08-2.68-1.62-5.62-1.62-8.82s.54-6.12 1.62-8.76c1.12-2.68 2.66-4.97997 4.62-6.89997 2-1.92 4.32-3.4 6.96-4.44 2.64-1.080002 5.5-1.620001 8.58-1.620001s5.64.38 7.68 1.140001c2.08.76 3.98 1.86 5.7 3.3v8.45997c-1.44-1.72-3.26-3.14-5.46-4.25997-2.16-1.16-4.72-1.74-7.68-1.74-2.56 0-4.94.62-7.14 1.86-2.16 1.19997-3.9 2.91997-5.22 5.15997-1.32 2.2-1.98 4.8-1.98 7.8z"></path><path d="m167.944 22c0-3.12.54-6 1.62-8.64 1.08-2.68 2.6-4.97997 4.56-6.89997 2-1.96 4.32-3.48 6.96-4.56 2.64-1.080002 5.52-1.620001 8.64-1.620001s6 .539999 8.64 1.620001c2.68 1.08 5 2.6 6.96 4.56 2 1.92 3.54 4.21997 4.62 6.89997 1.08 2.64 1.62 5.52 1.62 8.64s-.54 6.02-1.62 8.7c-1.08 2.64-2.6 4.96-4.56 6.96-1.96 1.96-4.28 3.5-6.96 4.62-2.64 1.08-5.54 1.62-8.7 1.62s-6.06-.54-8.7-1.62c-2.64-1.12-4.94-2.66-6.9-4.62-1.96-2-3.48-4.32-4.56-6.96-1.08-2.68-1.62-5.58-1.62-8.7zm7.5 0c0 2.88.6 5.46 1.8 7.74 1.24 2.24 2.94 4 5.1 5.28s4.62 1.92 7.38 1.92c2.8 0 5.26-.64 7.38-1.92 2.16-1.28 3.84-3.04 5.04-5.28 1.24-2.28 1.86-4.86 1.86-7.74s-.6-5.44-1.8-7.68c-1.2-2.28-2.88-4.06-5.04-5.33997-2.12-1.28-4.6-1.92-7.44-1.92-2.76 0-5.22.64-7.38 1.92-2.16 1.27997-3.86 3.05997-5.1 5.33997-1.2 2.24-1.8 4.8-1.8 7.68z"></path></g></svg>